/* XPM */
static char *result[] = {
/* columns rows colors chars-per-pixel */
"30 30 135 2 ",
"   c #010101",
".  c #0D0000",
"X  c #070B0B",
"o  c #0B0C0C",
"O  c #140000",
"+  c #0E1212",
"@  c #131414",
"#  c #171B1B",
"$  c #1B1C1C",
"%  c #260000",
"&  c #2E0000",
"*  c #340000",
"=  c #3C0000",
"-  c #272929",
";  c #353535",
":  c #3C3D3D",
">  c #660000",
",  c #750000",
"<  c #7B0101",
"1  c #434343",
"2  c #4D4D4D",
"3  c #545454",
"4  c #5B5B5B",
"5  c #646463",
"6  c #6B6B69",
"7  c #767676",
"8  c #840000",
"9  c #8B0404",
"0  c #930000",
"q  c #9B0000",
"w  c #A30000",
"e  c #AA0000",
"r  c #B40202",
"t  c #BA0000",
"y  c #AC1616",
"u  c #A72525",
"i  c #A62E2E",
"p  c #B32525",
"a  c #C50000",
"s  c #CC0000",
"d  c #D30000",
"f  c #DC0000",
"g  c #CA1717",
"h  c #E40101",
"j  c #EC0101",
"k  c #F30000",
"l  c #FF0000",
"z  c #F40808",
"x  c #FF0B0B",
"c  c #FF1313",
"v  c #F11919",
"b  c #FE1E1E",
"n  c #E72E2E",
"m  c #FF2424",
"M  c #FF2A2A",
"N  c #EE3F3F",
"B  c #FF3434",
"V  c #FF3B3B",
"C  c #B7403F",
"Z  c #A64948",
"A  c #856866",
"S  c #807E7C",
"D  c #BF6765",
"F  c #BC6D6B",
"G  c #B27A77",
"H  c #B37F7D",
"J  c #BB7C79",
"K  c #CB4847",
"L  c #CB4D4C",
"P  c #D74343",
"I  c #C55B5A",
"U  c #EB4545",
"Y  c #EA4F4F",
"T  c #FF4646",
"R  c #FE4F4F",
"E  c #FF5555",
"W  c #F75B5B",
"Q  c #FF5B5B",
"!  c #C5605F",
"~  c #C06968",
"^  c #FE6262",
"/  c #FF6D6D",
"(  c #FF7474",
")  c #FF7B7B",
"_  c #818181",
"`  c #898989",
"'  c #959494",
"]  c #9C9C9C",
"[  c #B48481",
"{  c #B88683",
"}  c #BD8E8B",
"|  c #BF918E",
" . c #B69491",
".. c #BF9A97",
"X. c #A6A6A6",
"o. c #ADACAB",
"O. c #B0AFAF",
"+. c #B3B1AF",
"@. c #B5B5B4",
"#. c #BAB9B6",
"$. c #BEBDBB",
"%. c #C1908D",
"&. c #C39492",
"*. c #C09895",
"=. c #C19E9B",
"-. c #FF8383",
";. c #FF8C8C",
":. c #FF9494",
">. c #FF9999",
",. c #C1BFBD",
"<. c #CCBEBA",
"1. c #C3C1BE",
"2. c #CEC1BD",
"3. c #D0C2BE",
"4. c #C4C4C3",
"5. c #CDCBC7",
"6. c #CCCBCA",
"7. c #D1C7C3",
"8. c #D4CAC6",
"9. c #D3CECA",
"0. c #D4D2CD",
"q. c #D9D1CD",
"w. c #D3D3D2",
"e. c #D8D5D1",
"r. c #DADAD9",
"t. c #E1DEDA",
"y. c #E5E2DD",
"u. c #E5E4E3",
"i. c #E9E6E1",
"p. c #EDEBE6",
"a. c #ECECEB",
"s. c #F0EDE7",
"d. c #F1EEE9",
"f. c #F5F5F5",
"g. c #FEFEFE",
/* pixels */
"i.p.p.p.i.p.i.y.p.a.r.2...J F D { *.<.r.p.p.i.p.p.p.p.i.p.p.",
"i.p.p.p.p.i.p.y.0.| I P n v z k j h g C { 0.i.p.p.p.p.a.p.p.",
"i.i.p.p.p.p.r.} K N R Q E V c x l l k h s p [ t.d.p.p.s.p.s.",
"i.p.p.i.p.8.D U ^ ( ( / / R b x l l k j h f a Z 7.p.p.p.p.p.",
"i.p.p.a.3.I W ) -.;.-.) / E b x l l l k j f d s i <.p.p.p.p.",
"y.p.p.8.I ^ -.;.:.;.-.) ^ V c l l l l l k h f d s i 7.a.p.p.",
"p.p.t.~ ^ ;.:.>.:.;.-.( R b x l l l l l l j h d s a Z t.s.s.",
"y.i.%.Y -.:.>.>.:.:.) Q m x l l l l l l l k h f d s r [ i.i.",
"p.q.L ^ -.;.:.:.:.-.E m x l l l l l l l l l j f d a a u q.a.",
"p.&.U / -.;.:.:.-.E b x l l l l l l l l l l k h d a a t { a.",
"t.! E / ) -.;.-.Q m l l l l l l l l l l l l j f d a t a C r.",
"2.P Q / ) ) ) ^ M l l l l l l l l l l l l k h f d a a a y ,.",
"=.n Q ^ ( / ^ B x l l l l l l l l l l l k k h d s a a a r  .",
"H n T Q ^ E B x l l l l l l l l l l l k k h h d a a a a t G ",
"7 9 b B B m x l l l l l l l l l k k k j f d s a a a a a q A ",
"6   < j x l l l l l l l l k s t t d f d s a a a a a a q % 5 ",
"' $   = w j l l l l l l r = .   . = 0 a a a a a a r , O   S ",
",.+.1     * 8 s k l l w . + 1 4 : X O 9 a a a e , &   @ 5 @.",
"5.r.d.] 1 o   . = < w % $ ] $.4.X.7 + % < > = O   X 1 ] @.5.",
"t.4.g.g.f.4._ 1 $       7 6.f.f.r.X.1       o - 4 ] 4.w.o.t.",
"i.,.a.g.g.g.g.f.r.@.5   ` r.g.g.u.@.4   3 ' @.w.r.w.w.4.#.s.",
"p.e.6.g.g.g.g.g.g.g.6.o 3 @.w.r.4.' ; # r.g.f.a.w.w.w.o.e.d.",
"u.i.$.a.g.g.g.g.g.g.f.3   4 ' ' _ 1   5 f.g.f.a.r.w.,.@.i.i.",
"i.s.y.1.f.g.g.g.g.g.g.r.1   + # o   2 u.g.g.f.a.w.6.o.t.s.p.",
"i.s.s.q.4.g.g.g.g.g.g.g.a.' 3 1 4 ] a.g.g.f.a.r.w.o.9.a.s.s.",
"i.s.p.a.9.4.f.g.g.g.g.g.g.g.f.f.g.g.g.g.f.a.u.6.o.6.d.a.s.s.",
"i.p.p.p.p.q.$.a.g.g.g.g.g.g.g.g.g.g.g.f.a.u.4.o.0.s.s.s.p.p.",
"p.p.s.s.p.p.t.#.6.a.g.g.g.g.g.g.g.g.f.a.6.O.@.t.s.p.p.p.p.p.",
"p.p.s.p.p.s.s.i.e.,.4.e.u.f.f.a.u.r.4.#.#.e.i.p.p.p.p.p.p.p.",
"i.s.s.s.p.s.s.i.p.p.r.9.1.#.@.@.#.#.6.y.d.d.i.p.p.p.i.p.p.p."
};
