/* XPM */
static char *result[] = {
/* columns rows colors chars-per-pixel */
"30 30 141 2 ",
"   c #020101",
".  c #0B0000",
"X  c #050808",
"o  c #0A0C0C",
"O  c #110000",
"+  c #1C0000",
"@  c #131414",
"#  c #151818",
"$  c #1A1B1B",
"%  c #2C0303",
"&  c #360000",
"*  c #232323",
"=  c #2D2E2E",
"-  c #2F3030",
";  c gray19",
":  c #3B3C3C",
">  c #470000",
",  c #4A0000",
"<  c #5C0000",
"1  c #570C0C",
"2  c #650000",
"3  c #720303",
"4  c #7C0000",
"5  c #3F4040",
"6  c #444545",
"7  c #4B4B4B",
"8  c #515151",
"9  c #575858",
"0  c #5C5C5C",
"q  c #626262",
"w  c #686868",
"e  c gray45",
"r  c #7E7D7C",
"t  c #810000",
"y  c #930000",
"u  c #A40101",
"i  c #AF0000",
"p  c #B20202",
"a  c #BC0000",
"s  c #AD1717",
"d  c #A92625",
"f  c #BC2827",
"g  c #AB302F",
"h  c #AE3130",
"j  c #C50000",
"k  c #CB0000",
"l  c #D20000",
"z  c #DC0000",
"x  c #D31A19",
"c  c #E30000",
"v  c #EA0000",
"b  c #E70909",
"n  c #F30000",
"m  c #FE0000",
"M  c #F30B0B",
"N  c #FF0909",
"B  c #FF1313",
"V  c #F31B1B",
"C  c #FF1919",
"Z  c #C22929",
"A  c #FF2424",
"S  c #E73F3F",
"D  c #F53535",
"F  c #FF3434",
"G  c #FF3939",
"H  c #A94140",
"J  c #A94B4A",
"K  c #B04C4B",
"L  c #A86563",
"P  c #AC6866",
"I  c #B86D6A",
"U  c #B8726F",
"Y  c #AF7775",
"T  c #A07B79",
"R  c #BF7F7C",
"E  c #D64342",
"W  c #CB504F",
"Q  c #CA5352",
"!  c #C65857",
"~  c #C65B5A",
"^  c #EB4242",
"/  c #ED4848",
"(  c #FF4444",
")  c #FF4C4C",
"_  c #E85353",
"`  c #F75353",
"'  c #FF5454",
"]  c #FF5B5B",
"[  c #C16665",
"{  c #C06D6C",
"}  c #F76060",
"|  c #FF6565",
" . c #FF6D6D",
".. c #FF7474",
"X. c #FF7D7D",
"o. c #818181",
"O. c gray55",
"+. c #959594",
"@. c #9A9995",
"#. c #9B9B9A",
"$. c #B58583",
"%. c #BB8482",
"&. c #B78885",
"*. c #BC9593",
"=. c #A5A5A5",
"-. c #ADADAC",
";. c #B3B1AF",
":. c #B3B3B2",
">. c #B9B7B5",
",. c #BAB9B6",
"<. c #BEBDBC",
"1. c #C29592",
"2. c #C39F9C",
"3. c #FF8383",
"4. c #FF8B8B",
"5. c #FF9494",
"6. c #FF9999",
"7. c #C0BFBD",
"8. c #C3C1BE",
"9. c #CEC1BD",
"0. c #D2C3BF",
"q. c #C4C4C4",
"w. c #CCCCCB",
"e. c #D2C7C3",
"r. c #D4CAC6",
"t. c #D4CECA",
"y. c #D3D1CE",
"u. c #D9D2CE",
"i. c #D4D3D2",
"p. c #D8D6D1",
"a. c #DCDCDB",
"s. c #E1DED9",
"d. c #E4E1DC",
"f. c #E4E3E2",
"g. c #E9E6E2",
"h. c #EDEBE6",
"j. c #ECECEB",
"k. c #F0EDE7",
"l. c #F1EEE9",
"z. c #F3F3F3",
"x. c #FEFEFE",
/* pixels */
"g.h.h.h.h.g.g.d.h.j.s.9.2.%.U I R 2.9.s.h.g.d.k.k.h.h.g.h.h.",
"g.h.h.h.h.g.h.d.u.1.~ E S ^ D V M b x K %.t.g.j.k.h.h.h.k.h.",
"g.g.h.h.h.h.s.*.W / ] | | | ] G B m m m c f %.d.l.h.h.h.k.k.",
"d.h.h.g.k.r.{ _  .X.3.3.X...| ) C N N m n c k K r.l.h.h.h.h.",
"h.h.h.h.0.~ } 3.4.5.5.3.3...| ( B N m m n v z l h 9.h.h.h.h.",
"d.h.h.t.~ | 4.5.5.5.5.4.3. .) A N m m m m n c z k g e.j.k.h.",
"h.k.d.[ ` 3.5.5.6.6.5.4...' A N m m m m m m v z l k J a.k.h.",
"d.g.1.S  .3.4.5.5.5.4. .) A N m m m m m m m n c z k a $.g.g.",
"k.u.Q '  .X.4.5.5.3.] F B N m m m m m m m m m c z k k d u.l.",
"h.1.^ |  .X.3.3.X.' A N m m m m m m m m m m m v z l k a &.j.",
"d.! ( |  .......) C m m m m m m m m m m m m m v z l j j H a.",
"8.Z G ] | | ] ( C m m m m m m m m m m m m m n v z l j j s 8.",
"#.1 V D ( ( F B m m m m m m m m m m m m m m v c l k j j p *.",
"T   3 M B B N m m m m m m m m m m m m m m n v z l k j j a Y ",
"+.*   2 c m m m m m m m m m m m m m m n v v c z k j j j a L ",
",.;.*   & i m m m m m m n l a k z v c c z l k k j j j j a P ",
"<.z.y.7     < j m m m a > .   . & y k l k j j j j j j k u T ",
"7.g.x.l.#.-   O < a i + o 6 0 5 o . 4 j j j j j j j a t % @.",
"w.a.x.x.x.g.+.: X . O @ +.<.q.;.r # + p k j j a u 4 &   $ 7.",
"a.q.x.x.x.x.x.j.>.9   q q.z.x.a.-.0   , 2 < > % .   X : r d.",
"g.q.j.x.x.x.x.x.x.w.o w w.x.x.j.7.e X       X @ = 0 +.<.,.l.",
"h.p.w.x.x.x.x.x.x.f.* ; =.w.a.w.=.8 X e #.=.-.>.q.y.i.:.p.l.",
"d.g.<.j.x.x.x.x.x.x.r   6 O.#.O.0 o : j.x.z.j.a.i.i.q.:.g.h.",
"g.k.s.q.z.x.x.x.x.x.j.q X X $ @   = q.x.x.z.j.i.w.w.;.s.k.h.",
"h.k.k.u.q.x.x.x.x.x.x.z.-.9 : 7 o.a.x.x.z.z.f.i.w.-.i.l.k.h.",
"g.k.h.h.w.q.z.x.x.x.x.x.x.x.z.z.x.x.x.z.j.f.a.w.-.w.l.j.k.l.",
"h.h.h.h.h.u.<.h.x.x.x.x.x.x.x.x.x.x.z.z.f.a.q.-.u.l.l.k.h.l.",
"g.h.l.h.h.h.s.<.w.j.x.x.x.x.x.x.x.z.j.a.w.;.;.s.h.h.h.h.h.h.",
"h.k.k.h.h.h.h.g.p.8.8.i.a.j.j.g.a.i.7.:.>.u.d.l.h.h.h.h.h.h.",
"h.h.k.h.k.l.k.g.h.h.s.w.8.>.;.:.:.<.w.s.l.l.g.j.h.h.g.h.g.h."
};
