/* XPM */
static char *result[] = {
/* columns rows colors chars-per-pixel */
"30 30 101 2 ",
"   c #020101",
".  c #0C0000",
"X  c #070808",
"o  c #0B0C0C",
"O  c #120000",
"+  c #1B0000",
"@  c #0F1111",
"#  c #161616",
"$  c #1A1B1B",
"%  c #230000",
"&  c #2B0000",
"*  c #310000",
"=  c #3C0101",
"-  c #272727",
";  c #2B2B2B",
":  c #333333",
">  c #373838",
",  c #3F3F3F",
"<  c #530000",
"1  c #5B0101",
"2  c #650000",
"3  c #6C0000",
"4  c #760707",
"5  c #760808",
"6  c #7C0808",
"7  c #4B4B4B",
"8  c #535353",
"9  c #5D5D5D",
"0  c #646464",
"q  c gray42",
"w  c #777777",
"e  c #7A7A7A",
"r  c #830000",
"t  c #8B0303",
"y  c #940303",
"u  c #980000",
"i  c #931E1E",
"p  c #9D1E1E",
"a  c #A30202",
"s  c #AD0202",
"d  c #B40000",
"f  c #BB0101",
"g  c #B21111",
"h  c #B71C1C",
"j  c #9C2121",
"k  c #992A2A",
"l  c #A22F2F",
"z  c #C50000",
"x  c #CB0000",
"c  c #C50E0E",
"v  c #D40000",
"b  c #DC0000",
"n  c #D41010",
"m  c #E40000",
"M  c #EC0000",
"N  c #F30000",
"B  c #FF0000",
"V  c #FE0A0A",
"C  c #FF1414",
"Z  c #FF1B1B",
"A  c #C52D2D",
"S  c #C63434",
"D  c #FF2525",
"F  c #FF2F2F",
"G  c #E83939",
"H  c #FF3131",
"J  c #FF3D3D",
"K  c #E54343",
"L  c #E44B4B",
"P  c #F34545",
"I  c #FE4444",
"U  c #F34A4A",
"Y  c #FE4B4B",
"T  c #EF5656",
"R  c #FF5151",
"E  c #FF5D5D",
"W  c #FF6464",
"Q  c #FF6C6C",
"!  c #FF7474",
"~  c #FF7B7B",
"^  c #828282",
"/  c #8C8C8C",
"(  c #959595",
")  c #9D9D9D",
"_  c #A3A3A3",
"`  c gray66",
"'  c #B3B3B3",
"]  c #BBBBBB",
"[  c #FF8484",
"{  c #FF8C8C",
"}  c #FF9494",
"|  c #FF9999",
" . c gray77",
".. c #CDCDCD",
"X. c #D2D2D2",
"o. c #DBDBDB",
"O. c #E6E6E6",
"+. c #ECECEC",
"@. c #F4F4F4",
"#. c #FEFEFE",
"$. c None",
/* pixels */
"$.$.$.$.$.$.$.$.$.$.$.p h c x x f s y $.$.$.$.$.$.$.$.$.$.$.",
"$.$.$.$.$.$.$.$.i A G P J D V B B B m n s 6 $.$.$.$.$.$.$.$.",
"$.$.$.$.$.$.$.A P E W W E I Z V B B N M b x a $.$.$.$.$.$.$.",
"$.$.$.$.$.k K W ~ ~ ! ! Q Y D V B B B N m b v f 6 $.$.$.$.$.",
"$.$.$.$.l T ! { { [ [ ! Q Y Z B B B B N M m b v f 6 $.$.$.$.",
"$.$.$.k T ~ { } } { [ ! E H V B B B B B N M m v x f 5 $.$.$.",
"$.$.$.L [ } | | | { [ Q J Z B B B B B B B N m v v x s $.$.$.",
"$.$.S Q { | | | } { ! I Z B B B B B B B B B M b v x z y $.$.",
"$.i U ! { { } | { ! J Z B B B B B B B B B B N m v x z f $.$.",
"$.S E ! [ { { { ! J Z B B B B B B B B B B B N m v x z z y $.",
"$.K W ! ~ [ { ~ I V B B B B B B B B B B B B N m v x z z s $.",
"p Y W ! ~ ~ ! R Z B B B B B B B B B B B B N M v v x z z f 5 ",
"h I W Q Q Q R D B B B B B B B B B B B B N N M v x z z z z t ",
"g H R W W Y D B B B B B B B B B B B B N N M b v x z z z z y ",
"= n D H H Z V B B B B B B B B B B N N M b v x x z z z z f 1 ",
"  & f V B B B B B B B B B M v f z v b v x z z z z z z d <   ",
";   . 3 x B B B B B B B s = .   . = u z z z z z z z u =     ",
"_ e @   + 1 d m B B B u . X > 7 ;   . r x z z f y < .   > 9 ",
"_ @. .9 #     & 2 a d + $ ( ] ] _ q o % t 6 1 & .   $ 0 ] ^ ",
"$.O.#.#.X./ 7 $     .   ^  .@.@.X._ 8         o ; q ' X.] $.",
"$. .#.#.#.#.@.o.' ^ ; o ) O.#.#.O.' 0   ; 0 / ' ..o...X.) $.",
"$.( @.#.#.#.#.#.#.#.(   w ] O.O.X.` 7   ' #.@.+.o.X.X. .$.$.",
"$.$. .#.#.#.#.#.#.#.o.- $ ^ ` ` ( 0 o > O.#.@.@.o...X.) $.$.",
"$.$.$.O.#.#.#.#.#.#.#.) o X : , ;   $ ' #.#.@.+.o.X.] $.$.$.",
"$.$.$.) +.#.#.#.#.#.#.#.' 7 # X $ 8  .#.#.@.@.O.o. .e $.$.$.",
"$.$.$.$._ +.#.#.#.#.#.#.#.@.o...o.@.#.#.@.@.O.o.] ^ $.$.$.$.",
"$.$.$.$.$.) O.#.#.#.#.#.#.#.#.#.#.#.#.#.@.O.o.] e $.$.$.$.$.",
"$.$.$.$.$.$.$. .@.#.#.#.#.#.#.#.#.#.@.@.O..._ $.$.$.$.$.$.$.",
"$.$.$.$.$.$.$.$.(  .O.@.#.#.#.#.#.@.O...` w $.$.$.$.$.$.$.$.",
"$.$.$.$.$.$.$.$.$.$.$.) ' ]  .] ' ` / $.$.$.$.$.$.$.$.$.$.$."
};
