/* XPM */
static char *result[] = {
/* columns rows colors chars-per-pixel */
"30 30 138 2 ",
"   c #020101",
".  c #0D0202",
"X  c #0B0C0C",
"o  c #140000",
"O  c #1E0000",
"+  c #131313",
"@  c #151A1A",
"#  c #1D1D1D",
"$  c #230000",
"%  c #2C0000",
"&  c #3C0000",
"*  c #1F2222",
"=  c #2C2D2D",
"-  c #2E3131",
";  c #323333",
":  c #3A3A3A",
">  c #420000",
",  c #490000",
"<  c #580000",
"1  c #6D0000",
"2  c #760000",
"3  c #444545",
"4  c #464848",
"5  c #515151",
"6  c #5B5C5C",
"7  c #646464",
"8  c DimGray",
"9  c #727272",
"0  c #787976",
"q  c gray50",
"w  c #840101",
"e  c #860909",
"r  c #930000",
"t  c #9D0000",
"y  c #A40000",
"u  c #AE0202",
"i  c #B60303",
"p  c #BC0101",
"a  c #AF1918",
"s  c #BF1818",
"d  c #AC2626",
"f  c #A6302F",
"g  c #C40000",
"h  c #CB0000",
"j  c #D30101",
"k  c #DC0000",
"l  c #E30000",
"z  c #EC0000",
"x  c #E70D0D",
"c  c #F40000",
"v  c #FF0000",
"b  c #FF0C0C",
"n  c #FF1414",
"m  c #F31818",
"M  c #FF1C1C",
"N  c #D62625",
"B  c #F32222",
"V  c #FF2323",
"C  c #FF2D2D",
"Z  c #EB3C3C",
"A  c #FF3333",
"S  c #F43B3C",
"D  c #FF3C3C",
"F  c #A84C4B",
"G  c #B24140",
"H  c #8C7E7B",
"J  c #BF6160",
"K  c #B56966",
"L  c #B76A68",
"P  c #B4706E",
"I  c #B87573",
"U  c #B77A77",
"Y  c #BE7F7D",
"T  c #CB4948",
"R  c #D74848",
"E  c #C55352",
"W  c #CC5656",
"Q  c #C65D5C",
"!  c #E74646",
"~  c #F14646",
"^  c #FF4545",
"/  c #F74C4C",
"(  c #FF4D4D",
")  c #EC5353",
"_  c #FF5252",
"`  c #F75E5E",
"'  c #FE5D5D",
"]  c #FF6363",
"[  c #FF6C6C",
"{  c #FF7474",
"}  c #FF7B7B",
"|  c #8E8E8E",
" . c #939393",
".. c #9F9894",
"X. c #B48683",
"o. c #BD8785",
"O. c #A09F9D",
"+. c #BF9491",
"@. c #BE9996",
"#. c #A5A5A5",
"$. c #ADACAB",
"%. c #B0B0AF",
"&. c #B5B4B2",
"*. c #BAB9B7",
"=. c #BDBCBA",
"-. c #C2918F",
";. c #C49693",
":. c #FF8383",
">. c #FF8C8C",
",. c #FF9494",
"<. c #FF9A9A",
"1. c #C2A19E",
"2. c #C0BFBD",
"3. c #C3C1BE",
"4. c #CFC2BD",
"5. c #D1C2BE",
"6. c #C4C3C3",
"7. c #C8C5C1",
"8. c #CDCBC7",
"9. c #CCCCCB",
"0. c #D4CAC5",
"q. c #D3CECA",
"w. c #D4D2CD",
"e. c #D9D1CD",
"r. c #CFCFD0",
"t. c #D4D4D3",
"y. c #D8D5D1",
"u. c #DDDDDC",
"i. c #E1DED9",
"p. c #E5E2DD",
"a. c #E5E4E3",
"s. c #E9E6E1",
"d. c #EDEBE6",
"f. c #ECEBEA",
"g. c #F0EDE7",
"h. c #F1EEE9",
"j. c #F4F4F4",
"k. c #FEFEFE",
/* pixels */
"s.d.d.d.s.s.s.p.f.f.i.4.1.Y L K U @.4.u.f.f.p.d.d.d.f.s.d.d.",
"s.d.d.d.d.s.d.s.e.-.E N x z z c l h s G X.q.s.d.h.d.d.d.d.h.",
"s.s.d.d.d.d.u.+.T Z D C b b v v v z l k g d X.p.h.d.d.d.d.d.",
"s.d.d.s.d.0.J Z _ ] ] _ V b b v v c l k k j p F 0.h.d.d.d.d.",
"s.d.d.d.5.E / [ } { { ] A b v v v v c z l j j g f 4.f.d.d.d.",
"p.d.g.e.Q ' } :.:.} { ' A b v v v v v c z k j h g f 0.d.d.d.",
"d.d.p.L ` :.>.,.>.:.{ ( M v v v v v v v c l k h g g F p.d.h.",
"p.s.+.) } ,.<.,.>.:.] A b v v v v v v v v z l j g g i X.s.s.",
"d.e.W { ,.<.<.,.>.} ^ n v v v v v v v v v c l j g g g d q.d.",
"d.;.) :.,.<.<.,.:._ M b v v v v v v v v v c k j g g g p X.f.",
"i.Q ' :.>.,.,.:.' V v v v v v v v v v v c z l j h g g g G u.",
"4.R ] { :.>.>.{ A v v v v v v v v v v v c z l j g g g g a 3.",
"1.! ] { :.:.} _ n v v v v v v v v v v v z l k h g g g g e ..",
"o.~ ] { { { ' C v v v v v v v v v v c z k j g g g g h t O 0 ",
"I S ' [ [ ' D b v v v v v v v v v z l k h h g g g g t %   9 ",
"P B ^ _ _ D n v v v v v v v k u r y g h g g g h p w O   5 O.",
"H e m V V b v v v v v v c w $       % r g g g r ,   X 7 =.&.",
"..X , i z v v v v v v v 2   * 6 8 4 X o w w > .   = | r.2.*.",
"7.:     % 1 y h l c v g . : $.2.2.#.9 X     X = q 2.t.t.*.9.",
"i.&. .: X     . $ & < & X | t.k.k.t.O.:   6 $.u.f.t.r.r.%.u.",
"s.6.f.j.8. .8 4 - * @ X + #.a.k.j.u.#.: # i.k.j.f.t.r.6.*.h.",
"d.y.9.k.k.k.k.j.f.a.u.|   9 =.t.t.&.q + 3 j.k.j.f.u.t.%.y.h.",
"p.s.=.f.k.k.k.k.k.k.k.f.: X 7  .| 8 * X #.k.k.j.f.t.2.&.s.s.",
"s.h.i.=.k.k.k.k.k.k.k.k.6.;   X X   + | k.k.k.f.u.9.$.i.g.g.",
"d.g.g.e.7.k.k.k.k.k.k.k.k.a. .7 6 q 9.k.k.k.j.a.r.$.w.h.g.g.",
"s.g.g.f.9.8.j.k.k.k.k.k.k.k.k.k.k.k.k.k.k.j.f.t.$.9.h.f.d.g.",
"d.d.d.d.d.w.2.f.k.k.k.k.k.k.k.k.k.k.k.k.k.a.9.$.w.g.g.g.d.g.",
"s.d.g.d.d.g.i.=.9.f.k.k.k.k.k.k.k.k.k.j.u.*.&.i.g.d.d.d.d.d.",
"d.g.g.g.d.d.d.s.y.3.7.t.f.j.j.j.f.u.7.*.=.y.a.d.d.d.d.d.d.d.",
"d.g.d.d.d.g.h.s.d.d.i.9.2.=.*.&.=.6.q.p.h.h.s.d.d.d.s.d.d.d."
};
