/* XPM */
static char *result[] = {
/* columns rows colors chars-per-pixel */
"30 30 153 2 ",
"   c #3A373D",
".  c #3D3C43",
"X  c #423F41",
"o  c #3D4D65",
"O  c #34486A",
"+  c #2C527B",
"@  c #2D5B7C",
"#  c #3A5574",
"$  c #355E79",
"%  c #474445",
"&  c #49474B",
"*  c #4D4A49",
"=  c #514E4D",
"-  c #424755",
";  c #4C4D54",
":  c #535255",
">  c #595655",
",  c #5B5857",
"<  c #53555A",
"1  c #555A5D",
"2  c #5D5C5B",
"3  c #615E5C",
"4  c #64615F",
"5  c #424D62",
"6  c #475966",
"7  c #475B67",
"8  c #45566E",
"9  c #4F5768",
"0  c #565E62",
"q  c #5B5E62",
"w  c #575D6B",
"e  c #5B6265",
"r  c #576471",
"t  c #646363",
"y  c #6A6665",
"u  c #6C6866",
"i  c #63696E",
"p  c #6B6A6D",
"a  c #726F6D",
"s  c #677277",
"d  c #6B7277",
"f  c #65727B",
"g  c #69757B",
"h  c #6B787F",
"j  c #747373",
"k  c #797674",
"l  c #72737A",
"z  c #7B7A7B",
"x  c #82807F",
"c  c #2D6183",
"v  c #3C6684",
"b  c #4F6182",
"n  c #587A8F",
"m  c #6A7C85",
"M  c #837E82",
"N  c #6E848F",
"B  c #7A8488",
"V  c #748D9D",
"C  c #75939F",
"Z  c #7598A7",
"A  c #7F99A7",
"S  c #7B9FB2",
"D  c #7DA4B7",
"F  c #7EA5B8",
"G  c #6AAACE",
"H  c #72B7D6",
"J  c #65CFE6",
"K  c #66CEE8",
"L  c #78CBE9",
"P  c #838382",
"I  c #898887",
"U  c #878688",
"Y  c #8E8D8B",
"T  c #918E8B",
"R  c #93908E",
"E  c #969492",
"W  c #9A9694",
"Q  c #969A9C",
"!  c #9D9B9A",
"~  c #A19E9B",
"^  c #A1A09F",
"/  c #819CA8",
"(  c #9BA2A7",
")  c #8FA4B0",
"_  c #80A8BE",
"`  c #A6A5A4",
"'  c #A8A5A1",
"]  c #AEAAA6",
"[  c #A0A3A8",
"{  c #AEACA9",
"}  c #B1ADAA",
"|  c #B3B0AE",
" . c #AEB2B9",
".. c #B5B3B0",
"X. c #B9B7B3",
"o. c #BDBAB6",
"O. c #B3B8BA",
"+. c #BEBCB8",
"@. c #C1BDB9",
"#. c #C6C2BE",
"$. c #81B0C7",
"%. c #84B3CC",
"&. c #88B6CE",
"*. c #87BCD7",
"=. c #8BBDD7",
"-. c #85B3D9",
";. c #8DBFD9",
":. c #A7BEC7",
">. c #81BEE5",
",. c #94BDE4",
"<. c #8CC3DF",
"1. c #BAC7CB",
"2. c #A4C4D3",
"3. c #B6CAD2",
"4. c #8DC6E3",
"5. c #8FC9E7",
"6. c #8FCAE8",
"7. c #93C9E5",
"8. c #9CCBE3",
"9. c #92CDEC",
"0. c #92D4EB",
"q. c #91CFF0",
"w. c #93D1F1",
"e. c #B1C8E1",
"r. c #B8CFE7",
"t. c #ACD2E4",
"y. c #ADD7EA",
"u. c #C5C4C3",
"i. c #C9C6C2",
"p. c #CCC9C5",
"a. c #C5CDCE",
"s. c #CCCCCA",
"d. c #D2CFCB",
"f. c #D5D2CE",
"g. c #CDD5DA",
"h. c #D4D7D5",
"j. c #D9D6D2",
"k. c #D4D8D7",
"l. c #DDDAD6",
"z. c #DFDCD8",
"x. c #E2DEDA",
"c. c #E5E2DD",
"v. c #E8E4DF",
"b. c #C7D7E6",
"n. c #C8D6E6",
"m. c #D7DEE6",
"M. c #DBE3E6",
"N. c #E6E4E2",
"B. c #E9E6E1",
"V. c #EDEAE5",
"C. c #EFEDE8",
"Z. c #F0EDE7",
"A. c #F0EDE8",
/* pixels */
"B.V.V.V.V.N.N.c.V.V.B.V.B.B.B.B.V.V.B.N.V.N.v.V.C.V.B.B.V.V.",
"B.C.V.V.V.B.V.N.V.V.C.V.C.C.B.V.C.B.V.V.v.V.v.V.C.V.V.C.V.V.",
"B.V.B.V.B.V.V.N.c.C.C.C.V.C.B.V.V.V.V.V.V.V.v.C.C.V.C.V.C.C.",
"B.V.B.V.V.V.C.f.| B.C.B.V.C.B.c.f.B.c.+.v.V.v.C.V.V.V.V.V.C.",
"v.V.V.V.V.V.B.W o.Z.V.V.V.Z.d.! i.V.V.` | V.v.V.V.V.V.V.V.V.",
"B.V.V.V.V.V.f.z f.Z.V.V.c.| z o.V.V.Z.i.P c.B.V.C.C.V.V.V.V.",
"B.V.V.C.Z.Z.@.a j.C.V.{ T 4 x c.Z.C.Z.l.j X.B.C.V.C.C.V.V.C.",
"c.B.B.B.B.c.E 4 +.l.! u 4 t X.c.v.v.v.j.a a X.c.v.v.v.V.v.v.",
"B.V.C.C.v.~ t > Y x 2 4 g N I c.C.V.B.#.u 2 t ^ x.V.B.V.C.V.",
"B.C.C.N.^ y 2 < p B N C Z Z s } V.Z.d.d 7 2 2 4 T z.C.V.V.V.",
"V.C.N.! p t 3 7 7 | k.k.h.:.%.B l.V.W 6 c # 2 3 3 R x.V.B.V.",
"V.Z.X.p p 4 0 $ @ f @.c.l.a.7._ U l ; < # + 5 , 3 y s.C.B.M.",
"V.v.I p u 2 $ $ $ @ o w : p &.5.f - 9 3 9 b # p 2 3 X.Z.m.r.",
"C.X.p p e # c v r 8 8 O 5 t F w.F 3 j 3 y u. .i.y 2 R Z.b.r.",
"z.k t t P V n ( U t y w q 4 G 8.>.U y 3 , j.N.B.T 2 W N.,.e.",
"` t i k j.O.i & . & 2 4 y z &.w.q.3.' 3 2 j.c.V.] k #.y.-.g.",
"{ i.z { A.R %   . : 1 3 , i <.w.w.t.V.f.R p.V.C.@.T V.y.0.A.",
"B.c.Y l.V.C 2 > 0 i e e , i _ 9.9.8.N.A.v.c.B.Z.i.W n.>.L N.",
"C.i.^ Z.V.2.N 3 2 3 3 4 s A ) 9.9.;.Q f.B.Z.B.A.i.[ -.G H m.",
"V.| +.A.C.g.=.S m 3 t 3 h 4.7.9.w.*.< : p ! i.B.i.1.K J t.C.",
"V...p.C.V.B.3.<.*.s 4 3 g 5.w.w.w.D 3 q e * : z {  .K y.V.Z.",
"V.p.f.V.V.V.V.s./ 2 y 4 s 4.6.4.$.i 3 j i.s.X.X.i.k.M.N.A.A.",
"c.c.c.B.v.c.v.j.a * : , m D D A 0 & = > X.C.N.B.N.B.B.N.N.B.",
"B.C.V.V.V.Z.Z.| * = p ! 1.1.s.f.t X = a d.Z.N.C.Z.Z.A.Z.A.A.",
"V.C.V.V.V.V.A.E * 3 f.A.A.Z.V.V.R   p d.Z.C.N.Z.Z.A.A.A.A.Z.",
"B.Z.V.V.V.V.V.W k P l.A.Z.V.V.V.i.M W o.B.A.N.Z.Z.Z.A.A.V.Z.",
"V.V.Z.V.V.V.V.d.s.s.x.V.Z.Z.V.V.Z.V.B.B.Z.A.N.A.V.C.C.C.V.C.",
"B.V.C.V.V.V.V.B.N.N.V.V.V.V.V.V.Z.Z.Z.Z.A.A.B.V.V.V.V.V.V.V.",
"V.V.C.V.V.C.V.B.Z.V.V.V.Z.V.V.B.A.Z.A.A.A.Z.B.Z.Z.V.V.V.V.V.",
"V.Z.Z.V.C.Z.Z.N.V.V.V.V.Z.Z.V.V.A.A.A.A.A.A.N.V.V.V.B.V.V.V."
};
