/* XPM */
static char *result[] = {
/* columns rows colors chars-per-pixel */
"30 30 147 2 ",
"   c #3A363C",
".  c #3A383E",
"X  c #3D3C43",
"o  c #423F41",
"O  c #3D4D65",
"+  c #34486A",
"@  c #2C527B",
"#  c #2D5B7C",
"$  c #335275",
"%  c #3D5175",
"&  c #3F5D71",
"*  c #355E79",
"=  c #385F79",
"-  c #434043",
";  c #4B4747",
":  c #49474B",
">  c #4D4A49",
",  c #514E4D",
"<  c #424755",
"1  c #4C4D54",
"2  c #535255",
"3  c #595655",
"4  c #5B5857",
"5  c #53555A",
"6  c #555A5D",
"7  c #5D5C5B",
"8  c #615E5C",
"9  c #64615F",
"0  c #424D62",
"q  c #45566E",
"w  c #4F5768",
"e  c #415B6D",
"r  c #495B68",
"t  c #565E62",
"y  c #5B5E62",
"u  c #575D6B",
"i  c #5B6265",
"p  c #576471",
"a  c #646363",
"s  c #6A6665",
"d  c #6C6866",
"f  c #666769",
"g  c #63696E",
"h  c #6B6A6D",
"j  c #726F6D",
"k  c #666E73",
"l  c #6A6C70",
"z  c #677277",
"x  c #65727B",
"c  c #69757B",
"v  c #6B787F",
"b  c #747373",
"n  c #797674",
"m  c #72737A",
"M  c #7B7A7B",
"N  c #82807F",
"B  c #2D6183",
"V  c #3C6684",
"C  c #4F6182",
"Z  c #587A8F",
"A  c #6A7C85",
"S  c #837E82",
"D  c #6E848F",
"F  c #72848B",
"G  c #7E8588",
"H  c #748D9D",
"J  c #75939F",
"K  c #7295A4",
"L  c #7F99A7",
"P  c #789BAA",
"I  c #7B9FB2",
"U  c #7DA4B7",
"Y  c #7EA5B8",
"T  c #838382",
"R  c #898887",
"E  c #878688",
"W  c #82898C",
"Q  c #8E8D8B",
"!  c #918E8B",
"~  c #93908E",
"^  c #969492",
"/  c #9A9694",
"(  c #969A9C",
")  c #9D9B9A",
"_  c #A19E9B",
"`  c #A1A09F",
"'  c #829AA5",
"]  c #809DAA",
"[  c #9BA2A7",
"{  c #8FA4B0",
"}  c #80A8BE",
"|  c #A6A5A4",
" . c #A8A5A1",
".. c #ADAAA7",
"X. c #AEACA8",
"o. c #B1ADAA",
"O. c #B3B0AE",
"+. c #AEB2B9",
"@. c #B5B3B0",
"#. c #B9B7B3",
"$. c #BDBAB6",
"%. c #B5B9B9",
"&. c #BEBCB8",
"*. c #C1BDB9",
"=. c #C5C2BE",
"-. c #81AAC1",
";. c #84B3CC",
":. c #88B6CE",
">. c #87BCD7",
",. c #8DBFD9",
"<. c #8CC3DF",
"1. c #B9C6CA",
"2. c #A4C4D3",
"3. c #B0C8D3",
"4. c #BBCCD1",
"5. c #8DC6E3",
"6. c #8FC9E7",
"7. c #8FCAE8",
"8. c #93C9E5",
"9. c #9CCBE3",
"0. c #92CDEC",
"q. c #91CFF0",
"w. c #93D1F1",
"e. c #A9D0E3",
"r. c #C5C4C3",
"t. c #C9C6C2",
"y. c #CCC9C5",
"u. c #C5CDCE",
"i. c #CCCCCA",
"p. c #D2CFCB",
"a. c #D5D2CE",
"s. c #CCD8DC",
"d. c #D1D6D5",
"f. c #D9D6D2",
"g. c #DDDAD5",
"h. c #DFDCD8",
"j. c #E2DEDA",
"k. c #DFE1DD",
"l. c #E5E2DD",
"z. c #E8E4DF",
"x. c #E7E4E1",
"c. c #E9E6E1",
"v. c #EDEAE5",
"b. c #EFEDE8",
"n. c #F0EDE7",
"m. c #F0EDE8",
"M. c #F4F1EB",
/* pixels */
"c.v.v.v.c.c.c.l.c.v.v.c.v.c.c.c.v.v.v.c.c.c.x.b.b.b.c.c.v.v.",
"c.b.v.v.v.v.v.x.v.v.v.v.b.b.c.v.v.v.c.v.c.c.x.v.b.c.v.b.v.b.",
"c.v.c.v.v.c.v.x.c.v.v.v.v.v.c.v.b.v.c.v.b.v.x.b.b.v.b.v.v.n.",
"z.v.c.v.v.v.b.a.O.c.b.v.v.v.v.k.p.v.j.&.x.v.x.v.v.v.v.v.v.b.",
"c.v.v.v.v.v.c./ $.n.v.v.v.b.i.) t.v.v. .@.b.c.v.v.v.v.v.v.v.",
"c.v.v.v.v.n.a.M a.v.v.v.l.@.M &.v.v.n.y.T h.c.v.b.b.v.v.v.v.",
"c.v.v.b.v.m.*.j f.b.v.o.! 9 N j.v.v.n.g.b #.v.v.v.n.b.b.v.n.",
"l.c.c.z.c.l.^ 9 &.g.) d 9 a $.l.c.c.c.f.j j #.l.z.c.z.c.z.c.",
"c.v.v.m.l._ a 3 Q N 7 a c D R l.m.v.c.t.s 7 s ) j.c.c.n.b.v.",
"v.b.m.l.| s 8 5 h T F J P K z o.v.m.p.l r 7 8 8 ! j.n.c.v.c.",
"v.v.c.) h a 8 r e @.d.d.a.2.;.G g.v._ 0 B e 7 8 9 ! j.n.c.c.",
"v.m.#.h g 8 t * # x =.j.g.u.8.U E m 1 5 $ @ O 4 8 s i.b.v.v.",
"v.c.R h f 6 = * * # O u 5 h :.6.x < w 8 w C % l 7 9 #.b.c.n.",
"v.#.h h y & B V p q q + 0 a } q.Y 8 j 9 s r.+.t.d 4 ~ n.n.b.",
"h.n a a T H Z [ E a s u y 9 } w.<.W d 8 3 a.c.c.! 8 / v.c.c.",
" .s f m f.%.g : X : 7 9 a M ;.w.q.3. .8 8 f.x.c...n =.c.c.c.",
"X.t.M X.b.! - . X 2 6 9 4 g <.w.q.e.v.a.~ y.c.m.*.! c.n.n.v.",
"c.l.Q g.v.J 7 3 t g i i 6 f -.q.0.9.c.M.x.l.c.m.t./ n.n.v.b.",
"b.y.` b.v.2.D 8 8 8 8 9 k L { 8.q.,.( a.c.b.c.m.y...b.v.v.b.",
"v.O.$.m.n.s.,.I A 7 a 8 v 8.8.0.w.>.2 2 d ) y.c.y.a.b.v.v.b.",
"v.@.y.b.v.c.4.,.>.z a 8 c 5.w.w.w.U 8 y i 1 2 n ..%.k.b.v.m.",
"v.y.a.v.v.v.v.i.' 7 a a c 5.7.5.-.k 8 b r.i.#.#.t.g.v.b.m.m.",
"x.l.l.x.x.c.c.f.j ; 3 4 A U Y ] t : , 3 #.v.c.v.c.c.c.c.c.c.",
"c.v.v.v.v.v.m.o.> , h ) 1.1.i.p.a o , j p.v.c.v.v.v.n.m.v.m.",
"v.b.v.v.v.v.m.^ > 8 a.m.m.n.v.n.^   h p.n.m.c.v.m.m.m.m.m.m.",
"c.m.v.v.v.v.v./ b T j.m.m.m.c.v.r.S ^ *.c.m.c.v.m.m.m.m.v.m.",
"v.v.m.v.v.v.v.p.i.i.j.v.v.m.v.v.n.v.c.c.v.m.c.m.v.m.v.m.v.m.",
"c.v.m.v.v.v.v.c.c.c.c.v.v.v.v.v.m.m.n.n.m.m.c.v.v.v.v.v.v.v.",
"v.v.m.v.v.m.v.c.v.v.v.v.n.v.v.c.m.m.m.m.m.v.c.v.v.v.v.v.c.v.",
"v.n.v.v.m.v.n.c.v.v.v.v.n.m.v.v.m.m.m.m.m.m.c.n.v.v.v.v.v.v."
};
