/* XPM */
static char *result[] = {
/* columns rows colors chars-per-pixel */
"30 30 108 2 ",
"   c black",
".  c #110B01",
"X  c #110C01",
"o  c #110E00",
"O  c #110E01",
"+  c #110E05",
"@  c #11100D",
"#  c #241B01",
"$  c #221D01",
"%  c #231E01",
"&  c #251C01",
"*  c #251D01",
"=  c #241D06",
"-  c #2E2400",
";  c #2E2502",
":  c #3C2D02",
">  c #3C2E02",
",  c #3D2F02",
"<  c #3A3302",
"1  c #3B3302",
"2  c #202310",
"3  c #222510",
"4  c #242710",
"5  c #27311F",
"6  c #293320",
"7  c #2B3520",
"8  c #403502",
"9  c #413502",
"0  c #6C4504",
"q  c #6F4704",
"w  c #6D4F04",
"e  c #6B5D02",
"r  c #6C5D02",
"t  c #6B5E04",
"y  c #6C5E04",
"u  c #7F5204",
"i  c #7C5A04",
"p  c #7D5B04",
"a  c #7E5B04",
"s  c #7C6B02",
"d  c #7D6C02",
"f  c #7F6E03",
"g  c #7C6C04",
"h  c #7D6D04",
"j  c #7E6D04",
"k  c #7E6E04",
"l  c #7F6F05",
"z  c #6D5B21",
"x  c #7D6826",
"c  c #7D6926",
"v  c #7E6926",
"b  c #10456D",
"n  c #1F546F",
"m  c #16517C",
"M  c #16527D",
"N  c #26627E",
"B  c #27627F",
"V  c #6D6755",
"C  c #6F6955",
"Z  c #805204",
"A  c #826F01",
"S  c #816E02",
"D  c #806E03",
"F  c #806F03",
"G  c #806F05",
"H  c #807005",
"J  c #817005",
"K  c #997005",
"L  c #997F27",
"P  c #807961",
"I  c #817962",
"U  c #817A62",
"Y  c #968205",
"T  c #9A8505",
"R  c #9C8705",
"E  c #BD9205",
"W  c #BC9107",
"Q  c #BD9307",
"!  c #BFA505",
"~  c #D49F07",
"^  c #C0A606",
"/  c #CBB007",
"(  c #CDB107",
")  c #D7BA08",
"_  c #D5AB25",
"`  c #DFC106",
"'  c #DEC008",
"]  c #E0C207",
"[  c #E1C308",
"{  c #F5D409",
"}  c #F8D709",
"|  c #FFDD09",
" . c #FFDE09",
".. c #FFDF09",
"X. c #FFE009",
"o. c #FFE109",
"O. c #FFE209",
"+. c #3BA3DD",
"@. c #48AFDE",
"#. c #49B1E1",
"$. c #46BCFC",
"%. c #46BDFE",
"&. c #54C9FD",
"*. c #55C9FD",
"=. c #55CBFF",
"-. c #55CCFF",
";. c #56CDFF",
":. c None",
/* pixels */
":.:.:.:.:.@ = & * * * * * * * * * * * * * * * # . :.:.:.:.:.",
":.:.:.:.  V _ E W W W W W W W W W W W W W W Q ~ 0   :.:.:.:.",
":.:.:.:.:.I L - 8 9 9 9 9 9 9 9 9 9 9 9 9 8 ; K Z :.:.:.:.:.",
":.:.:.:.:.P x e ) ^ ! ! ! ! ! ! ! ! ! ! ^ ) t i u :.:.:.:.:.",
":.:.:.:.:.P c F R 4 7 7 7 7 7 7 7 7 7 6 3 R H p u :.:.:.:.:.",
":.:.:.:.:.P c D S n #.@.@.@.@.@.@.@.@.+.b S G p u :.:.:.:.:.",
":.:.:.:.:.P c D A B ;.=.=.=.=.=.=.=.=.%.M A G p u :.:.:.:.:.",
":.:.:.:.:.P c D A N -.&.&.&.&.&.&.&.*.$.m A G p u :.:.:.:.:.",
":.:.:.:.:.P c D A N -.&.&.&.&.&.&.&.*.$.m A G p u :.:.:.:.:.",
":.:.:.:.:.P c D A B ;.=.=.=.=.=.=.=.=.%.M A G p u :.:.:.:.:.",
":.:.:.:.:.P c D S n #.@.@.@.@.@.@.@.@.+.b S G p u :.:.:.:.:.",
":.:.:.:.:.P c f T 3 6 6 6 6 6 6 6 6 6 5 2 T l p u :.:.:.:.:.",
":.:.:.:.:.P c d } ] ` ` ` ` ` ` ` ` ` ` ] } h p u :.:.:.:.:.",
":.:.:.:.:.P c s o...................X.O.O.O.g p u :.:.:.:.:.",
":.:.:.:.:.P c s X.| | | | | | | | o./ j j ( k p u :.:.:.:.:.",
":.:.:.:.:.P c s X.| | | | | |  .{ Y < , > J G p u :.:.:.:.:.",
":.:.:.:.:.P c s X.| | | | | |  .{ Y 1 , : J G p u :.:.:.:.:.",
":.:.:.:.:.P c s X.| | | | | | | | o./ j j ( k p u :.:.:.:.:.",
":.:.:.:.:.P c s X.| | | | | | | | | ..X.X.O.g p u :.:.:.:.:.",
":.:.:.:.:.P c s X.| | | | | | | | | | | | X.g p u :.:.:.:.:.",
":.:.:.:.:.P c s X.| | | | | | | | | | | | X.g p u :.:.:.:.:.",
":.:.:.:.:.P c s X.| | | | | | | | | | | | X.g p u :.:.:.:.:.",
":.:.:.:.:.P c s X.| | | | | | | | | | | | X.g p u :.:.:.:.:.",
":.:.:.:.:.P c s X.| | | | | | | | | | | | X.g p u :.:.:.:.:.",
":.:.:.:.:.P c s X.| | | | | | | | | | | | X.g p u :.:.:.:.:.",
":.:.:.:.:.P c s X.| | | | | | | | | | | | X.g p u :.:.:.:.:.",
":.:.:.:.:.P c s X.| | | | | | | | | | | | X.g p u :.:.:.:.:.",
":.:.:.:.:.U v d O.........................O.h a Z :.:.:.:.:.",
":.:.:.:.  C z r [ ' ' ' ' ' ' ' ' ' ' ' ' [ y w q   :.:.:.:.",
":.        @ + o % $ $ $ $ $ $ $ $ $ $ $ $ % O X .         :."
};
