/* XPM */
static char *result[] = {
/* columns rows colors chars-per-pixel */
"30 30 83 1 ",
"  c #E9E6E1",
". c #EEEBE6",
"X c #EDEAE5",
"o c #ECE9E4",
"O c #E9E8E3",
"+ c #E9E7E2",
"@ c #E6E2DD",
"# c #EBE9E4",
"$ c #EBEAE5",
"% c #EDEBE6",
"& c #EAE6E1",
"* c #E7E5E0",
"= c #EEECE7",
"- c #E8E8E3",
"; c #E7E4DF",
": c #EAE8E4",
"> c #EBE9E5",
", c #EDE9E6",
"< c #EAE7E2",
"1 c #ECEAE5",
"2 c #EAE8E3",
"3 c #EEEAE5",
"4 c #EFEBE6",
"5 c #EEEAE6",
"6 c #F0ECE7",
"7 c #EBE8E3",
"8 c #EBE7E2",
"9 c #E9E9E3",
"0 c #E8E5E0",
"q c #EFECE7",
"w c #EFEAE6",
"e c #F0ECE6",
"r c #ECE8E3",
"t c #EDE9E4",
"y c #EEECE6",
"u c #EDEBE5",
"i c #ECE9E5",
"p c #EFEBE7",
"a c #E5E2DD",
"s c #E1DED9",
"d c #E6E3DE",
"f c #E6E5E0",
"g c #E8E4E0",
"h c #E4E1DC",
"j c #E1DFDA",
"k c #E4E3DE",
"l c #E7E6E1",
"z c #EAE9E3",
"x c #F0EDE8",
"c c #E5E3DE",
"v c #ECEBE6",
"b c #E7E3DF",
"n c #E7E7E2",
"m c #EAE9E4",
"M c #F1EEE9",
"N c #EFECE6",
"B c #ECE8E4",
"V c #EBE7E3",
"C c #EAE7E3",
"Z c #E3E1DC",
"A c #E8E6E1",
"S c #F0EDE7",
"D c #E6E2DF",
"F c #E8E5E2",
"G c #E6E4E0",
"H c #E6E5E1",
"J c #E7E5E2",
"K c #E3DFDC",
"L c #E8E4E1",
"P c #E9E5E2",
"I c #E5E1DE",
"U c #E9E6E3",
"Y c #E8E5E1",
"T c #E8E6E2",
"R c #EAE6E3",
"E c #EBE8E2",
"W c #EAE7E1",
"Q c #EEEBE5",
"! c #E9E6E0",
"~ c #EFECE8",
"^ c #F2EFEA",
"/ c #E7E6E2",
"( c white",
/* pixels */
" ..XoO+@###$#%&*=X#O-O;X.X#:>,",
"<.1oo2$;344556786Xo#920.q.w4e6",
" X7o77X0...%.q7 .XXort;.q.y..q",
"0u#oXX.0X.XXX.< ..XXXX0...XXX.",
" .i5...;X..3X.< XX.XX.0XX.XXX.",
" Xt..XX;oXXXX.< XoX.XX0.qq..XX",
"<..qq..0.qqp.q7<...qq. qqqq.q6",
"a0000;0sdf;g0 hh0;;0  jk000 00",
"<q.q.Xpal9z#.x<<qX.XXXc2ooXX.v",
"oqqq..6bnO#tX.7<q.....;o7oo7X$",
"7q.q..q02oooX.< qXX...0XooooXO",
"oq.....0XXo...< .X...X;....XXm",
"oxqq... XX..oX< .XX.XXdX..XoXo",
"XMxxxxx X.q..q7<qq.N..;X.qq.X.",
"<Xoo77od7Xo77o0*X77BookV7oo777",
"077#7<7a77<  7;;#<<CC<Z<<<<<<<",
"XxxMxqx0qx..qxXoMxxxqx qqqxqqq",
"oxxxMqx;.qq..qooMqxxxx ...q..q",
"oqqxxxx ..qXX.7<xqqq.q0.XX...q",
"7....qx Xo.XX.<7x..qqqf5.....x",
"<XXXX.q .qq.X.77xqqqqqA4qqxxqx",
"7XoXXXq qqSy.xo7xyqqq6 qqqxxxx",
"DFGHGGJKLPPPFPIIULYPFTKFHJPPPR",
"ES4XX340X.443.8W4QQ..40Q.qSNq6",
"Ex...4q qqqSqq7Eq..qNq!N6xxxxq",
"7x...X. qx~xxxo7x..q~x qxxxxqx",
"7..XXXX0qqqqqxX7xqqqxx<qqqqq.x",
"<....X.0...qqxooMqqqqx p...XX.",
"oxqq..q0XXX.qxooMqqxqq*5.XXXo.",
"oqqqqqx0XXo.qxXX^xMM^M/4.ooooq"
};
