/* XPM */
static char *result[] = {
/* columns rows colors chars-per-pixel */
"30 30 225 2 ",
"   c black",
".  c #0D0C02",
"X  c #111002",
"o  c #171603",
"O  c #242105",
"+  c #322E07",
"@  c #343007",
"#  c #3F3A08",
"$  c #292424",
"%  c #332D2D",
"&  c #574E0B",
"*  c #7F740F",
"=  c #7B7210",
"-  c #5B552C",
";  c #776F25",
":  c #666452",
">  c #757466",
",  c #AD3C0E",
"<  c #D92A0E",
"1  c #F22D0F",
"2  c #FF2C0F",
"3  c #F6300F",
"4  c #F7300F",
"5  c #E33D10",
"6  c #EC3D10",
"7  c #B1450F",
"8  c #AC5F11",
"9  c #847A11",
"0  c #DC5E13",
"q  c #E74311",
"w  c #E44A11",
"e  c #E35D13",
"r  c #C47414",
"t  c #CB7B15",
"y  c #E16113",
"u  c #958801",
"i  c #988B00",
"p  c #988B01",
"a  c #998C03",
"s  c #9A8D02",
"d  c #928211",
"f  c #908513",
"g  c #988511",
"h  c #948814",
"j  c #9D9113",
"k  c #9C9015",
"l  c #A69802",
"z  c #A89A0A",
"x  c #AA9D16",
"c  c #BBAB01",
"v  c #BCAC02",
"b  c #BDAE0A",
"n  c #BEAF0D",
"m  c #B1A316",
"M  c #BEAD17",
"N  c #B4A618",
"B  c #B7A918",
"V  c #B8AA18",
"C  c #B9AB18",
"Z  c #BAAD19",
"A  c #BBAD19",
"S  c #BCAD19",
"D  c #BCAE19",
"F  c #BDAE19",
"G  c #BDAF19",
"H  c #BEAF19",
"J  c #BEB019",
"K  c #BFB019",
"L  c #BFB119",
"P  c #C09216",
"I  c #C59517",
"U  c #E09D19",
"Y  c #C3B203",
"T  c #C2B104",
"R  c #C0B007",
"E  c #C5B505",
"W  c #C7B705",
"Q  c #C7B608",
"!  c #C5B50C",
"~  c #D7A91A",
"^  c #DFAC1A",
"/  c #C5B515",
"(  c #C9B914",
")  c #CFBF14",
"_  c #C1B21A",
"`  c #C1B31A",
"'  c #C2B31A",
"]  c #C6B71A",
"[  c #C7B81A",
"{  c #C7BB1B",
"}  c #C9BA18",
"|  c #C8B81A",
" . c #C8B91A",
".. c #C9BA1A",
"X. c #C9BA1B",
"o. c #CABB1B",
"O. c #CCBC1B",
"+. c #CDBE1B",
"@. c #CEBF1B",
"#. c #CFBF1B",
"$. c #D2BB1B",
"%. c #D5BE1C",
"&. c #DBBB1C",
"*. c #E4AD1B",
"=. c #E5B31B",
"-. c #D3C20A",
";. c #D1C00C",
":. c #DBC90B",
">. c #DDCB0E",
",. c #DECC0F",
"<. c #D5C416",
"1. c #D2C11B",
"2. c #D4C31B",
"3. c #D7C71A",
"4. c #D0C01C",
"5. c #D1C11C",
"6. c #D5C51C",
"7. c #D5C41D",
"8. c #D7C61C",
"9. c #D7C71C",
"0. c #D7C71D",
"q. c #D8C71D",
"w. c #DAC91B",
"e. c #DCCB1B",
"r. c #D9C91D",
"t. c #DAC91D",
"y. c #DBCB1D",
"u. c #DBCC1D",
"i. c #DDCC1D",
"p. c #DECD1D",
"a. c #DFCD1D",
"s. c #DFCE1E",
"d. c #DECF1E",
"f. c #E0CF1E",
"g. c #E1CF1E",
"h. c #E8C91D",
"j. c #EBCF1E",
"k. c #E4D213",
"l. c #E2D019",
"z. c #E2D01B",
"x. c #E3D21D",
"c. c #E1D01E",
"v. c #E2D01E",
"b. c #E2D11E",
"n. c #E3D21E",
"m. c #E4D31E",
"M. c #E5D31E",
"N. c #E6D41D",
"B. c #E5D41E",
"V. c #E6D51F",
"C. c #E7D51F",
"Z. c #E6D61F",
"A. c #E7D61F",
"S. c #EFD31F",
"D. c #E8D61F",
"F. c #E8D71F",
"G. c #E9D71F",
"H. c #EAD818",
"J. c #EBD818",
"K. c #EBD91B",
"L. c #ECD918",
"P. c #ECD919",
"I. c #ECDA19",
"U. c #EDDA19",
"Y. c #E9D81F",
"T. c #EAD81F",
"R. c #EBD91F",
"E. c #EBDA1F",
"W. c #ECDA1D",
"Q. c #EDDB1D",
"!. c #ECDA1F",
"~. c #EDDB1F",
"^. c #EEDB1F",
"/. c #EEDC1F",
"(. c #F0DE1E",
"). c #F0DE1F",
"_. c #F1DE1F",
"`. c #F2E01C",
"'. c #F4E11E",
"]. c #F5E21E",
"[. c #F4E21F",
"{. c #F6E31E",
"}. c #F6E31F",
"|. c #E9D820",
" X c #EEDC20",
".X c #EFDC20",
"XX c #EFDD20",
"oX c #F0DD20",
"OX c #F0DE20",
"+X c #F1DE20",
"@X c #F1DF20",
"#X c #F2DF20",
"$X c #F1E120",
"%X c #F2E020",
"&X c #F3E020",
"*X c #F3E120",
"=X c #F4E120",
"-X c #F4E220",
";X c #F5E220",
":X c #F4E221",
">X c #F5E321",
",X c #F6E320",
"<X c #F6E321",
"1X c #F6E420",
"2X c #F6E421",
"3X c #F7E421",
"4X c #F7E521",
"5X c #F8E520",
"6X c #F8E421",
"7X c #F8E521",
"8X c #F8E621",
"9X c #F9E621",
"0X c #FAE721",
"qX c #FBE721",
"wX c #FAE821",
"eX c #FBE821",
"rX c #FAE921",
"tX c #FBE921",
"yX c #FCE821",
"uX c #FCE921",
"iX c #FCEA22",
"pX c #FDEA22",
"aX c #B2A947",
"sX c #A8A25B",
"dX c None",
/* pixels */
"    dXdXdXdXdXdXdXdXdXdXdXdXdXdXdXdXdXdXdXdXdXdXdXdXdXdXdXdX",
"dX  # O.dXdXdXdXdXdXdXdXdXdXdXdXdXdXdXdXdXdXdXdXX     dXdXdX",
"dX  + R.!.H dXdXdXdXdXdXdXdXdXdXdXdXdXdXdXdX9 B @   dXdXdXdX",
"dXdXo o.pX=X| dXdXdXdXdXdXdXdXdXdXdXdXdXdXD =Xb.O   dXdXdXdX",
"dXdXdXk uX0X<X] dXdXdXdXdXdXdXdXdXdXdXh t.eXpXB . dXdXdXdXdX",
"dXdXdXdXC.0X0X%XC dXdXdXdXdXdXdXdXdXX.OXqX0X3Xf dXdXdXdXdXdX",
"dXdXdXdXdXb.9XqXD.dX#.n.R.~.~.F.q.@.%X0X0X+X+.dXdXdXX.f.XXX.",
"dXdXdXdXdXdX8.%X=X@X7X0X0X0X0X0X9X3X9X*Xc.dXdXV r. X7X0X4X` ",
"dXdXdXdXdXdXdXJ ~.0X9X9X9X9X9X9X9X9X3X .dXK v.-X0X0X9X9X=XN ",
"dXdXdXdXdXdXdX4.9XeX0X9X9X9X9X9X0XeXeXc.y.3X0X9X9X9X9X0X^.dX",
"dXdXdXdXdXdXdXp.<X0.|.0X9X9X9X0XOX7.OXXXm.0X9X9X9X9X9X0Xn.dX",
"dXdXdXdXdXdXdXs.j : sXQ.0X0X9X{.aX> = /.g.0X9X9X9X0X0X0X6.dX",
"dXdXdXdXdXdXdXZ.* $ - N.0XoX<X}.; % & E.c.0X0X0X2X Xc.4.dXdX",
"dXdXdXdXdXdXdX&.%.d M 9X0Xp.OXyX2.g #..X9.7XR.0._ dXdXdXdXdX",
"dXdXdXdXdXdXdX5 y S.iX*X!.v.D.oX9XtX*.e t *X5.dXdXdXdXdXdXdX",
"dXdXdXdXdXdXdX3 4 U rXOXn.!.V.C.8Xj.w 2 0 %X<X[ dXdXdXdXdXdX",
"dXdXdXdXdXdXdX< 6 =.wX9X0X0X0X0XwXh.q 1 r $X0X@XG dXdXdXdXdX",
"dXdXdXdXdXdXdXdXI -X0X9X9X9X9X9X9X6X^ 8 dXA -XeXC.dXdXdXdXdX",
"dXdXdXdXdXdXdXdXd.c.XX9X0X0X0X9X3X!.u.{ Z V.XXt.dXdXdXdXdXdX",
"dXdXdXdXdXdXdXK <X=XR.,XI.H.L.'.D.B.;XT.a.$.dXdXdXdXdXdXdXdX",
"dXdXdXdXdXdXdXi.0X9X0X5XP.k.J.[.7X0X0X>XP 7 dXdXdXdXdXdXdXdX",
"dXdXdXdXdXdXL -X9X9X9X2XA.9X:XD.9X9X9XwX~ , dXdXdXdXdXdXdXdX",
"dXdXdXdXdXdXC.0X9X9X9X9Xf.<XY.D.0X9X9X9X@XdXdXdXdXdXdXdXdXdX",
"dXdXdXdXdX' 2X7X9X9X9X0Xb.+Xn.oX0X9X0X!.*Xv.dXdXdXdXdXdXdXdX",
"dXdXdXdXS 4.<XM.9X9X9X0XV.~.f.-X9X9X8XM.3X!.dXdXdXdXdXdXdXdX",
"dXdXdXx 1.x.OXi.&X9X9X0XC.R.b.3X9X9X#XC.1Xw.} m dXdXdXdXdXdX",
"dXdXdXdXn >.`.G.b.0X9X0Xx.l.e.<X9X9XC.%XK.;.b dXdXdXdXdXdXdX",
"dXdXdXdXdXc :.U.3.).0X0X<.E ! (.0X_.z.].,.Y a dXdXdXdXdXdXdX",
"dXdXdXdXdXdXv W R ( &X;X/ p z W.7X) Q -.T s dXdXdXdXdXdXdXdX",
"dXdXdXdXdXdXdXu dXdXA F dXdXdX..#.dXi l dXdXdXdXdXdXdXdXdXdX"
};
