/* XPM */
static char *result[] = {
/* columns rows colors chars-per-pixel */
"30 30 157 2 ",
"   c black",
".  c gray8",
"X  c #2E2A17",
"o  c #3C3C3E",
"O  c #575108",
"+  c #45411D",
"@  c #665E0D",
"#  c #78680D",
"$  c #676118",
"%  c #696219",
"&  c #41403F",
"*  c #3F3C44",
"=  c #575654",
"-  c #5B5956",
";  c #757371",
":  c #FD2B0D",
">  c #E73716",
",  c #E4391B",
"<  c #81730F",
"1  c #BD7114",
"2  c #BE5936",
"3  c #DE5D13",
"4  c #E44F0F",
"5  c #E64411",
"6  c #DC6814",
"7  c #DE7C15",
"8  c #DA5C46",
"9  c #CE6F48",
"0  c #8F8212",
"q  c #928814",
"w  c #B8AB18",
"e  c #BDB11F",
"r  c #8C8421",
"t  c #BAAE21",
"y  c #B3A939",
"u  c #BBB336",
"i  c #D88114",
"p  c #CE9E18",
"a  c #C7B606",
"s  c #CBBA04",
"d  c #C7B709",
"f  c #D6AD17",
"g  c #C3B312",
"h  c #C2B319",
"j  c #CEBA18",
"k  c #E3AC1B",
"l  c #C2B525",
"z  c #CEA738",
"x  c #DBBD36",
"c  c #D5C40A",
"v  c #D1C113",
"b  c #DCCD1D",
"n  c #E7C71E",
"m  c #E2CC1B",
"M  c #E4D213",
"N  c #EAD716",
"B  c #E5D41E",
"V  c #E8D71F",
"C  c #ECDB1E",
"Z  c #F1DF1E",
"A  c #F6E31E",
"S  c #F9E61F",
"D  c #D9CB27",
"F  c #D9CB36",
"G  c #DFD030",
"H  c #E5D523",
"J  c #EEDC22",
"K  c #E7D72B",
"L  c #EBDB2B",
"P  c #F1DF20",
"I  c #E4D533",
"U  c #E7D835",
"Y  c #E9D932",
"T  c #E0D33D",
"R  c #E6D83D",
"E  c #F4E221",
"W  c #F9E621",
"Q  c #FBE821",
"!  c #8A8543",
"~  c #BA9851",
"^  c #BCB145",
"/  c #BFB44C",
"(  c #AAA452",
")  c #BC9864",
"_  c #BFB662",
"`  c #C2A249",
"'  c #C5BB43",
"]  c #C2B852",
"[  c #C0B758",
"{  c #C4BC77",
"}  c #D3C949",
"|  c #DED14D",
" . c #CFC550",
".. c #DBCF53",
"X. c #D7CC5D",
"o. c #DDD259",
"O. c #E0D343",
"+. c #E2D54B",
"@. c #CBC264",
"#. c #D6CC61",
"$. c #D4CC6A",
"%. c #D9CF6C",
"&. c #DCD268",
"*. c #CEC677",
"=. c #C9C37A",
"-. c #D3C872",
";. c #D7D07F",
":. c #D9D17E",
">. c #8D8C8A",
",. c #9E9B90",
"<. c #ACA883",
"1. c #A6A393",
"2. c #B1AD94",
"3. c #B3B0A5",
"4. c #B3B1AE",
"5. c #BDBBB7",
"6. c #D2998D",
"7. c #C7C087",
"8. c #CAC38E",
"9. c #CFC88D",
"0. c #D2CB83",
"q. c #D3CB8A",
"w. c #DAD385",
"e. c #CEC997",
"r. c #CCC79D",
"t. c #D0CA90",
"y. c #DAD392",
"u. c #D6D09C",
"i. c #D9D39C",
"p. c #E2DB9F",
"a. c #CFCCA4",
"s. c #D4CEA5",
"d. c #D7D3AC",
"f. c #DBD6AC",
"g. c #DAC6B6",
"h. c #D8C8BF",
"j. c #D6D2B3",
"k. c #DBD6B2",
"l. c #DBD6B5",
"z. c #D5D1B9",
"x. c #CFCCC3",
"c. c #D1CEC9",
"v. c #D8D4C7",
"b. c #DEDAC2",
"n. c #DFDCCF",
"m. c #DDDAD5",
"M. c #E1DDC3",
"N. c #E1DDCE",
"B. c #E2DED3",
"V. c #E1DED9",
"C. c #E4E0D1",
"Z. c #E5E3DD",
"A. c #E7E4E1",
"S. c #E9E6E2",
"D. c #EDEAE6",
"F. c #EEEBE8",
"G. c #F0EDE8",
/* pixels */
"A.; = 3.Z.S.S.A.S.S.D.D.D.D.S.S.D.D.D.S.S.S.S.F.S.V.Z.D.D.D.",
"D.>.  % X.j.S.A.D.F.D.D.D.D.S.S.D.D.S.D.D.D.c.1.- & 5.F.D.D.",
"S.m.o O A I q.V.F.D.D.D.D.D.S.S.D.D.D.D.m.<.y q   & V.F.D.G.",
"S.F.4.+ B Q J *.Z.F.D.D.D.G.S.S.D.D.F.x.( b Q q . 4.F.D.D.D.",
"A.D.S.,.l S Q J 0.S.F.G.D.F.S.S.F.F.b.' C Q A $ >.G.D.D.S.D.",
"S.D.G.S.t.L S S K d.Z.f.y.w.w.i.M.b.+.S Q A G 2.S.Z.k.;.$.N.",
"S.G.G.G.D.i.T S Q | | L E A W E U R W W E ..d.b.w.| L A F C.",
"Z.Z.Z.S.A.A.l.X.B S W Q W W W Q W W W G 0.r.$.I A S S S o.V.",
"S.D.D.D.F.D.F.z.G S W W W W W W W W E  .#.L A Q E Q Q A &.S.",
"D.D.G.G.D.F.F.i.E S E W W W W W E J Q B C Q W W Q Q E E q.D.",
"S.G.D.G.D.D.G.u.B r ( H Q Q W E } ! w V B Q W W Q E Q J k.S.",
"S.G.D.D.G.D.F.y.v X - e Q W E E r * @ V H S W S E E Y X.C.F.",
"D.G.G.G.D.D.D.-.m 0 < B Q B J Q e # h C b Q L O.%.i.b.Z.D.S.",
"D.G.G.G.G.G.Z.9 4 k Q E J B B J W Q k 6 p A @.B.F.F.F.F.D.D.",
"S.D.S.S.D.S.Z.8 : 3 P E B J B B E n 5 : i W L s.S.D.D.A.S.D.",
"Z.D.S.D.S.D.S.6.> 7 E Q E Q Q Q E n 5 , z W Q U d.S.A.D.S.S.",
"G.G.G.G.D.G.D.C.~ m W E Q W W W Q E f ) z.} S S ..B.D.D.G.G.",
"D.G.G.G.G.G.G.Z...B B E W W Q Q P B b } | J T :.M.S.D.G.D.D.",
"S.G.D.G.F.G.G.l.Y Q P P N M M Z V J E B j ` z.F.G.D.D.D.D.D.",
"D.D.D.D.D.F.D.%.A W Q W Z C Z Z Q Q Q P 1 2 h.G.D.D.D.D.G.G.",
"S.D.D.D.D.F.f.L W W W W B E P B Q E E Q x g.A.D.G.D.G.G.G.G.",
"S.S.D.D.F.Z...S W W W W H C C V Q Q Q E P p.D.G.D.G.G.D.D.G.",
"A.A.Z.V.a.e.U P P W E Q C V H Z W W Q B A o.v.V.S.S.S.S.Z.S.",
"S.G.D.n.u D H V B Q Q Q J B m P W W Z V A F ' 7.S.G.G.G.G.G.",
"S.G.D.S.=.j N S b E Q Q Z b b Z W Q B P V c t j.F.G.G.G.G.D.",
"D.G.G.G.V.] s N M B Q Q B a d Z W J B A c g 8.F.D.G.G.G.G.G.",
"S.G.D.D.G.B.' s a g H S D [ ^ V S j a c g 8.S.G.G.G.D.D.D.G.",
"Z.B.S.D.S.S.B.{ 7.s.q.:.f.G.N.w.&.9._ / s.D.S.D.D.D.D.D.D.G.",
"S.A.G.G.D.D.G.A.D.F.D.F.F.F.D.S.S.G.G.S.G.G.S.D.D.D.D.D.D.D.",
"S.G.G.G.D.G.G.Z.S.D.D.D.G.G.S.D.G.G.G.G.G.G.S.G.D.D.S.D.S.D."
};
