/* XPM */
static char *result[] = {
/* columns rows colors chars-per-pixel */
"30 30 153 2 ",
"   c black",
".  c #191919",
"X  c #2E2A15",
"o  c #383639",
"O  c #544E08",
"+  c #685F0D",
"@  c #676013",
"#  c #68621C",
"$  c #474422",
"%  c #464545",
"&  c #4A4946",
"*  c #55524E",
"=  c #5A5957",
"-  c #7C7A78",
";  c #FE2B0D",
":  c #E23C1C",
">  c #86750F",
",  c #BE7316",
"<  c #817A21",
"1  c #827C32",
"2  c #DF5D13",
"3  c #E7470E",
"4  c #E54411",
"5  c #C05C3A",
"6  c #837F49",
"7  c #DB5F49",
"8  c #CE6945",
"9  c #8D8311",
"0  c #998D14",
"q  c #AFA317",
"w  c #BDB11E",
"e  c #BAAD25",
"r  c #B9AE32",
"t  c #DB8315",
"y  c #CE9918",
"u  c #C6B605",
"i  c #CBBA04",
"p  c #C5B50B",
"a  c #C8B708",
"s  c #D0BF0A",
"d  c #C0B115",
"f  c #CEBF11",
"g  c #C2B31A",
"h  c #CBBC1A",
"j  c #D6B318",
"k  c #E2A51A",
"l  c #C1B528",
"z  c #C4BA38",
"x  c #C9BE3D",
"c  c #D9C70A",
"v  c #DDCD1C",
"b  c #DED11D",
"n  c #E1CF11",
"m  c #E7C71D",
"M  c #E2CC1B",
"N  c #E6D414",
"B  c #E9D614",
"V  c #E4D41E",
"C  c #E8D71F",
"Z  c #EBDA1E",
"A  c #F1DE1D",
"S  c #F5E31E",
"D  c #F9E61E",
"F  c #FBE81F",
"G  c #D6C920",
"H  c #D5C82E",
"J  c #DBCD34",
"K  c #E4D423",
"L  c #EEDD22",
"P  c #E6D72D",
"I  c #EBDA2A",
"U  c #F1DF21",
"Y  c #E7D830",
"T  c #E8D935",
"R  c #E1D33D",
"E  c #F4E221",
"W  c #F9E621",
"Q  c #FCE921",
"!  c #BF9A49",
"~  c #BA9F55",
"^  c #AEA64A",
"/  c #BCB24B",
"(  c #A5A059",
")  c #BFB553",
"_  c #BC9F67",
"`  c #AAA579",
"'  c #CEAA41",
"]  c #C3B95C",
"[  c #C3BA67",
"{  c #C2BB79",
"}  c #D5CA48",
"|  c #DED242",
" . c #D9CD55",
".. c #D5CB59",
"X. c #DCD053",
"o. c #DDD15C",
"O. c #E2D544",
"+. c #E1D55B",
"@. c #CDC468",
"#. c #D5CB63",
"$. c #D9CF66",
"%. c #D5C96C",
"&. c #D5CD74",
"*. c #D5CC7B",
"=. c #DAD278",
"-. c #99968A",
";. c #979695",
":. c #A7A49B",
">. c #B2B09A",
",. c #B1AEA0",
"<. c #BBB9B5",
"1. c #D3A095",
"2. c #C9C482",
"3. c #D1CA82",
"4. c #D4CD8D",
"5. c #D9D183",
"6. c #D8D18A",
"7. c #CFC996",
"8. c #CAC598",
"9. c #D2CC92",
"0. c #D2CD9D",
"q. c #DAD392",
"w. c #D7D198",
"e. c #D8D29B",
"r. c #E1DA98",
"t. c #D3CFA4",
"y. c #D5CFAC",
"u. c #D6D1A1",
"i. c #D9D3A7",
"p. c #D7D2AA",
"a. c #CBC8BC",
"s. c #D6C7B7",
"d. c #D2CEB2",
"f. c #D7D3B5",
"g. c #DAD6B4",
"h. c #D6D2BB",
"j. c #DAD6B8",
"k. c #CBC8C2",
"l. c #DAD4C8",
"z. c #DDDACC",
"x. c #D7D5D0",
"c. c #DDDBD4",
"v. c #E2DECD",
"b. c #E1DED5",
"n. c #E2DFDB",
"m. c #E5E1D5",
"M. c #E5E2DD",
"N. c #E9E6DF",
"B. c #E7E4E1",
"V. c #E9E6E2",
"C. c #EDEAE6",
"Z. c #EEEBE9",
"A. c #F0EDE8",
/* pixels */
"V.C.C.C.V.V.V.B.V.C.C.C.C.C.V.V.C.C.V.V.V.V.N.C.C.C.C.V.C.C.",
"V.V.C.C.C.V.Z.B.C.C.C.C.C.C.V.V.C.C.C.V.C.V.N.A.A.C.C.C.C.C.",
"B.- = ,.m.C.C.N.C.C.C.C.C.C.C.V.C.C.C.C.C.C.V.A.N.c.N.A.C.C.",
"V.-.  @  .p.V.V.V.Z.C.C.C.C.V.V.C.C.C.C.C.V.k.-.& o <.A.C.C.",
"V.n.% O S P 3.n.C.C.Z.C.C.C.C.V.C.C.C.A.x.` r 0   & n.C.C.C.",
"V.Z.<.$ M F L @.M.Z.C.C.C.C.V.V.C.C.Z.a.^ V Q 9 . <.A.C.C.C.",
"V.C.C.:.l Q W U *.B.Z.Z.Z.Z.V.V.A.C.j.x S W E # ;.Z.Z.Z.V.C.",
"M.V.V.B.7.P W W I u.z.u.5.=.=.6.j.j.O.D W D J >.M.z.u.&.#.z.",
"N.C.C.C.C.t.O.E D R | L W D S S I T W D E o.d.f.&.O.L S R v.",
"C.A.A.A.Z.C.v.$.K D Q W W W W W W Q E | 4.0...P S W W D  .M.",
"C.C.C.Z.Z.Z.A.h.J D W W W W W W W W E } ..I D W W W W D $.V.",
"C.C.C.C.C.C.Z.e.E D A W W W W W W Z Q V Z W D W W W W E 9.C.",
"C.C.A.C.C.C.Z.e.V < ( K W W W W x 6 q C V W D D W W W I g.C.",
"C.A.A.A.A.A.A.q.h X * w Q E E S 1 o + K C W F D S U T #.b.C.",
"N.C.C.C.C.C.V.%.M 0 9 C Q V L Q h > h K M W I X.*.p.v.M.C.C.",
"N.C.N.C.V.V.n.8 3 k W W L V V Z W Q k 2 y E [ b.V.C.V.V.N.N.",
"Z.A.A.A.A.C.N.7 ; 2 S E V Z K C W m 4 ; t W I w.C.Z.Z.A.C.A.",
"C.A.A.A.A.A.A.1.: t S W W Q W W Q m 3 : ' U W Y i.Z.C.A.C.C.",
"C.Z.A.A.A.A.A.n.~ b W W W W W W Q W j _ f.} F S } b.A.C.A.A.",
"N.C.C.C.C.A.Z.m.X.C b S W W W W L b b } | L | 6.v.C.C.C.C.A.",
"V.C.C.C.C.C.C.f.Y F E E B n b A Z U W Z g ! l.Z.Z.C.A.C.C.A.",
"V.C.V.C.C.C.V.$.S W W W A A S E W W W U , 5 h.Z.C.Z.Z.A.A.A.",
"N.V.B.B.N.V.u.I F W W D V S U b W W W W x s.n.V.N.V.V.N.N.V.",
"V.C.C.C.C.M.X.D W W W F Z Z Z Z W W W W U r.V.A.C.Z.A.C.A.A.",
"V.Z.A.N.0.7.T Z S Q W W Z Z b U W W W V S +.z.m.A.A.A.A.A.A.",
"C.Z.Z.v.r G K C V Q W W A b b S W W A K E H z 2.A.A.A.A.C.A.",
"N.A.Z.C.*.f N S v E W W B b b E W W C U N s e h.A.Z.Z.Z.C.A.",
"C.C.C.C.N.] i B V b W Q N w p Z W A V S c d 8.Z.C.C.Z.C.C.C.",
"C.C.A.A.Z.b.) u p g K W J [ / C E h a s g 8.V.A.C.C.C.C.N.Z.",
"M.c.N.Z.A.A.m.{ 1.t.3.=.g.Z.m.5.$.4.] / y.A.V.V.C.C.C.C.C.C."
};
