/* XPM */
static char *result[] = {
/* columns rows colors chars-per-pixel */
"30 30 39 1 ",
"  c #4D3C2B",
". c #523F2E",
"X c #583D28",
"o c #4D3E30",
"O c #543E32",
"+ c #54422E",
"@ c #5A432E",
"# c #554332",
"$ c #5B4533",
"% c #5E4935",
"& c #534439",
"* c #584538",
"= c #5D4B39",
"- c #614733",
"; c #634B35",
": c #694E37",
"> c #644D3A",
", c #694E3A",
"< c #6C5137",
"1 c #66513B",
"2 c #6C533D",
"3 c #71563E",
"4 c #73593F",
"5 c #795B3F",
"6 c #6D5441",
"7 c #6E5942",
"8 c #725641",
"9 c #745A43",
"0 c #7A5D44",
"q c #7C5E49",
"w c #7D6146",
"e c #7C614A",
"r c #816246",
"t c #83634B",
"y c #89674B",
"u c #86684E",
"i c #89694C",
"p c #866651",
"a c #896B51",
/* pixels */
"&*>12eq2899121=1w27w1;;72%++>,",
",999wut2eq989e<4e<33322962-19,",
"4trqqty821qt54;21%;296>83<0w:%",
"qtt8wtr,29qrpt21=;8ww7;3:202%+",
"9wrqtqr,6q89ee82:4w399;2=;%%#+",
"0rwww0y>690044:92292ep->:;:%@@",
"349wwry,0tq886@71195q9%11%111+",
"22;%%%>*=,$%>,>>12;;121;=# #=#",
"500%$;>2>>-6686,,,$>9981>%$822",
"tiy2%2283,,,--,,,3%2989-$#%229",
"rrt,%932806@-,8,38%63,1:;-$239",
"qty2>888qt8O>89,26%-42-->-&739",
"0qt,>099tq6%8628,0-;q2>6,;#,39",
"0806-99qtq,>,,266,*>21;=$%&18q",
"8q0OO:6883%$$$>6>O#>;-#++# =,6",
">,-,80,,r8e8%$#O;62211+;113q;+",
"eqrqq9:3rwt2:99>qee9e2%04404@+",
"9rae9,-;rq310w3@9988e%=93<2==-",
"90yut8,6r3q99t81q921<:;w3@-@2,",
"3ryr881,494244;16e9921-21;;;<-",
"ewwr893=2;;;;1;;8w3947-1%=$:,X",
"etwatw1%$169381+14213$$1%1121$",
";%==%;+  +##;;=&1#+&##++=$ #>#",
"722#$@%=,-$=321;=# 1299222#=$=",
"eqt633988%O2w82=@;#1322122$128",
"t9t,,3992-=6w27189$1;137;-@188",
"qqt6>992121>8312w2#22293;2#290",
"q89,2w22892-32;,:1#2312;2q%239",
"e1966067w82;12->;*+1=;%<q2#28q",
"919=2866927=166>7=#;13=12$.=:2"
};
